<?xml version="1.0" standalone="no"?>
<!DOCTYPE svg PUBLIC "-//W3C//DTD SVG 20010904//EN"
 "http://www.w3.org/TR/2001/REC-SVG-20010904/DTD/svg10.dtd">
<svg version="1.0" xmlns="http://www.w3.org/2000/svg"
 width="512.000000pt" height="512.000000pt" viewBox="0 0 512.000000 512.000000"
 preserveAspectRatio="xMidYMid meet">
<metadata>
Created by potrace 1.14, written by Peter Selinger 2001-2017
</metadata>
<g transform="translate(0.000000,512.000000) scale(0.100000,-0.100000)"
fill="#000000" stroke="none">
<path d="M790 2895 c0 -22 4 -25 35 -25 l35 0 0 -311 c0 -182 -4 -318 -10
-329 -5 -10 -21 -21 -35 -24 -16 -4 -25 -13 -25 -26 0 -19 7 -20 153 -20 83 0
181 5 216 11 132 21 238 97 289 207 24 51 27 69 27 167 0 98 -3 116 -26 166
-48 102 -137 167 -268 195 -41 8 -128 14 -228 14 l-163 0 0 -25z m325 -26
c110 -20 179 -69 226 -159 21 -40 24 -59 24 -160 0 -106 -2 -120 -28 -172 -34
-69 -101 -131 -164 -152 -28 -10 -80 -16 -130 -16 l-83 0 0 313 c0 322 2 336
40 350 24 9 52 8 115 -4z"/>
<path d="M3470 2895 c0 -22 4 -25 38 -25 l37 0 -3 -312 c-1 -172 -4 -319 -7
-326 -3 -7 -18 -18 -35 -23 -19 -7 -30 -18 -30 -30 0 -18 9 -19 125 -19 l125
0 0 25 c0 23 -4 25 -40 25 l-40 0 0 160 0 160 28 0 c35 0 48 -14 187 -198 59
-79 118 -150 130 -158 33 -22 159 -16 163 8 2 12 -7 20 -35 27 -46 13 -84 51
-188 191 -43 58 -93 121 -111 140 l-33 35 56 90 c99 159 135 193 226 210 27 5
37 12 37 26 0 18 -9 19 -120 19 l-120 0 0 -25 c0 -21 5 -25 31 -25 l31 0 -29
-33 c-15 -18 -60 -83 -98 -144 l-70 -112 -42 -1 -43 0 1 118 c1 147 6 164 47
177 21 6 32 16 32 27 0 16 -11 18 -125 18 l-125 0 0 -25z"/>
<path d="M1733 2695 c-104 -53 -156 -142 -156 -267 0 -64 5 -87 27 -132 49
-101 125 -146 244 -146 49 0 72 6 123 33 69 36 110 80 92 98 -9 9 -20 5 -45
-16 -46 -39 -93 -57 -153 -57 -61 -1 -101 19 -132 65 -24 35 -42 103 -43 158
l0 36 53 7 c28 3 114 6 191 6 l139 0 -7 43 c-10 64 -47 128 -93 161 -35 24
-54 30 -115 33 -64 4 -79 1 -125 -22z m181 -44 c23 -20 46 -72 46 -106 l0 -25
-136 0 -135 0 7 23 c24 81 41 101 101 123 43 15 89 9 117 -15z"/>
<path d="M2282 2703 c-59 -21 -102 -66 -102 -107 0 -39 15 -56 52 -56 35 0 55
32 40 65 -9 19 -6 27 14 46 19 18 36 23 79 23 80 1 99 -21 103 -123 l4 -78
-48 -7 c-99 -13 -185 -47 -231 -91 -39 -38 -43 -46 -43 -89 0 -97 56 -141 169
-134 55 3 74 9 113 36 l47 32 3 -27 c3 -28 4 -28 81 -31 77 -3 77 -3 77 23 0
22 -4 25 -34 25 l-35 0 -3 203 c-3 228 -10 252 -80 288 -45 23 -143 24 -206 2z
m188 -355 l0 -83 -35 -23 c-44 -28 -111 -37 -145 -20 -33 18 -47 68 -30 108
16 39 80 77 151 89 29 5 55 9 57 10 1 0 2 -36 2 -81z"/>
<path d="M2822 2708 c-7 -7 -36 -15 -65 -18 -44 -4 -52 -8 -55 -27 -3 -20 1
-23 35 -23 l38 0 -3 -192 c-1 -106 -4 -203 -7 -215 -3 -14 -16 -25 -30 -29
-16 -4 -25 -13 -25 -25 0 -18 7 -19 113 -17 108 3 112 4 115 26 3 19 -1 22
-32 22 l-36 0 0 170 0 170 38 41 c31 35 84 69 107 69 3 0 5 -9 5 -20 0 -23 32
-43 63 -38 12 2 28 15 36 30 14 25 14 29 -5 55 -40 53 -131 41 -201 -27 l-42
-40 -3 48 c-3 49 -21 65 -46 40z"/>
<path d="M4235 2265 c-14 -13 -25 -30 -25 -37 0 -34 15 -60 43 -74 28 -15 32
-15 56 4 37 27 42 93 9 116 -32 22 -55 20 -83 -9z"/>
</g>
</svg>
